<mxfile host="app.diagrams.net" modified="2023-07-16T13:59:45.657Z" agent="Mozilla/5.0 (Windows NT 10.0; Win64; x64) AppleWebKit/537.36 (KHTML, like Gecko) Chrome/114.0.0.0 Safari/537.36" version="21.6.2" etag="KtpAA0WwoGJlg3Nz_nw7" type="github">
  <diagram name="Page-1" id="MoGsYbMMJ_pPuohtM5ND">
    <mxGraphModel>
      <root>
        <mxCell id="0" />
        <mxCell id="1" parent="0" />
      </root>
    </mxGraphModel>
  </diagram>
</mxfile>
